<svg width="351" height="349" viewBox="0 0 501 499" fill="none" xmlns="http://www.w3.org/2000/svg">
<path d="M240.539 1.40131C240.139 2.46797 235.605 18.6013 230.272 37.268C225.072 55.9346 220.539 72.3346 220.139 73.5346C219.739 75.0013 217.072 76.3346 212.539 77.268C194.005 81.1346 167.339 92.3346 151.872 102.868C114.805 128.068 88.9386 164.868 78.272 207.801C76.672 214.068 75.3386 219.401 75.072 219.668C74.9386 219.801 58.1386 224.735 37.7386 230.601C17.3386 236.468 0.405306 241.535 0.00530599 241.935C-0.394694 242.335 21.872 242.601 49.6053 242.601C88.672 242.601 99.872 242.201 100.272 240.868C100.539 240.068 101.472 234.068 102.272 227.668C109.739 171.268 154.405 121.001 210.672 105.935C217.472 104.068 227.072 102.201 232.005 101.801L241.072 100.868L241.339 50.7346C241.605 23.1346 241.605 0.334641 241.472 0.0679779C241.205 -0.1987 240.805 0.334641 240.539 1.40131Z" fill="#F37C35"/>
<path d="M258.405 50.3346V101.268H262.939C276.939 101.268 301.072 108.335 319.339 117.801C325.872 121.135 331.605 123.935 332.272 123.935C332.805 123.935 338.005 120.201 343.872 115.668L354.539 107.401L351.472 105.001C339.072 95.5346 313.339 83.9346 294.805 79.1346C287.739 77.4012 281.339 75.4012 280.939 74.8679C280.405 74.3346 275.339 57.4012 269.739 37.2679C264.005 17.1346 259.205 0.334564 258.939 0.067894C258.672 -0.198769 258.405 22.3346 258.405 50.3346Z" fill="#F37C35"/>
<path d="M77.8719 78.7344C78.6719 79.6678 87.0719 90.7344 96.4052 103.268C105.872 115.668 113.739 126.201 114.005 126.468C114.672 127.401 126.405 115.534 125.739 114.601C125.339 114.068 114.139 105.268 100.805 95.1344C87.3385 85.0011 77.0719 77.6678 77.8719 78.7344Z" fill="#F9B643"/>
<path d="M382.272 110.334C357.472 129.668 294.405 179.001 256.139 209.134C243.472 219.001 233.072 227.534 233.072 227.934C233.072 228.334 234.805 230.468 236.939 232.468C240.672 236.068 241.072 236.068 243.872 234.068C251.205 229.001 262.539 233.401 265.205 242.601C266.672 247.268 266.539 248.734 264.539 252.868L262.272 257.668L266.272 261.801C268.539 263.934 270.539 265.534 270.805 265.134C271.072 264.868 280.005 253.534 290.672 239.934C318.672 204.068 331.739 187.268 361.072 149.934C397.872 103.001 406.539 91.9345 406.139 91.9345C405.872 91.9345 395.205 100.201 382.272 110.334Z" fill="#536474"/>
<path d="M236.405 126.601C183.472 132.335 140.005 171.535 128.139 224.335C124.672 239.935 125.205 265.668 129.472 281.401C132.272 292.068 140.005 310.601 141.605 310.601C142.539 310.601 158.405 289.535 159.872 286.068C161.205 283.268 161.072 280.201 159.072 269.801C154.672 246.601 158.405 223.268 169.472 204.068C175.072 194.068 190.272 178.468 200.539 171.935C221.739 158.601 243.739 154.601 269.205 159.401C275.472 160.601 282.139 161.268 283.872 160.868C285.605 160.335 292.405 155.801 298.805 150.735L310.672 141.401L304.139 138.201C293.739 132.868 277.205 128.201 263.339 126.735C256.272 125.935 249.472 125.401 248.139 125.401C246.805 125.535 241.605 126.068 236.405 126.601Z" fill="#F9B643"/>
<path d="M383.205 153.401C378.939 158.868 375.205 163.935 374.805 164.735C374.539 165.668 376.139 169.268 378.272 172.868C388.005 188.735 395.739 210.601 398.539 230.201L400.272 242.601H450.939C478.672 242.601 501.205 242.335 500.805 241.935C500.405 241.535 484.005 236.735 464.272 231.135C444.539 225.535 427.605 220.468 426.539 219.935C425.605 219.401 423.339 213.535 421.739 207.001C416.405 186.335 404.005 159.135 394.405 147.668L390.939 143.535L383.205 153.401Z" fill="#F37C35"/>
<path d="M230.405 176.735C203.872 183.668 181.205 207.135 175.739 233.268C174.005 241.401 174.405 265.135 176.272 265.668C176.939 265.801 179.739 262.601 182.539 258.601C186.539 252.868 188.005 249.268 189.072 241.935C191.739 224.468 202.539 207.668 216.939 198.468C223.605 194.201 236.005 189.935 245.339 188.601C252.805 187.668 268.139 176.868 264.272 175.401C260.405 173.935 237.872 174.735 230.405 176.735Z" fill="#F37C35"/>
<path d="M346.272 200.601C340.805 207.668 336.405 213.801 336.405 214.334C336.539 214.868 337.872 219.534 339.472 224.868C341.605 231.668 343.605 235.401 346.539 237.801C350.272 241.001 351.605 241.268 362.672 241.268H374.672L373.739 234.201C371.472 218.068 360.939 187.934 357.339 187.934C356.672 187.934 351.739 193.668 346.272 200.601Z" fill="#F9B643"/>
<path d="M218.139 244.868C211.872 252.735 182.939 289.801 153.605 327.268C124.272 364.601 98.5388 397.668 96.4054 400.468C92.2721 405.935 97.8721 401.668 214.139 310.601L267.605 268.601L263.472 264.335C259.739 260.468 258.939 260.201 252.939 260.868C246.805 261.535 246.272 261.401 241.605 256.735C237.072 252.201 236.805 251.401 237.339 245.268C238.005 239.268 237.605 238.335 233.739 234.601L229.339 230.335L218.139 244.868Z" fill="#0F4372"/>
<path d="M0.405299 259.401C1.2053 259.668 18.272 264.735 38.4053 270.468L75.072 280.868L76.1386 285.401C79.872 300.335 86.1386 318.201 91.3386 328.601C98.272 342.468 106.272 354.868 107.605 353.935C108.272 353.668 112.272 348.735 116.672 343.001L124.672 332.601L120.672 325.935C111.205 310.201 103.472 287.135 101.472 268.468L100.405 259.268L49.7386 259.001C21.872 258.868 -0.261368 259.001 0.405299 259.401Z" fill="#F37C35"/>
<path d="M199.872 346.468C192.539 352.068 186.539 357.001 186.539 357.401C186.405 358.868 207.072 367.801 216.672 370.468C222.005 371.935 229.605 373.535 233.605 373.935L241.072 374.868V362.735C241.072 351.401 240.805 350.335 237.472 346.601C234.939 343.935 230.539 341.668 223.472 339.401L213.205 336.201L199.872 346.468Z" fill="#F9B643"/>
<path d="M152.805 383.001L142.539 391.135L148.805 395.668C164.539 406.868 186.405 416.868 206.272 421.935C213.072 423.668 218.939 425.401 219.205 425.668C219.605 425.935 224.405 442.335 230.005 462.068C235.605 481.801 240.539 498.335 240.939 498.868C241.339 499.401 241.739 477.401 241.739 450.068V400.201L233.472 399.401C214.272 397.401 183.605 386.735 170.539 377.401C168.405 375.801 165.872 374.601 164.805 374.735C163.872 374.735 158.405 378.468 152.805 383.001Z" fill="#F37C35"/>
</svg>
