<!-- <svg width="74" height="39" viewBox="0 0 74 39" fill="none" xmlns="http://www.w3.org/2000/svg">
<path d="M14.872 23.566C14.872 17.456 5.85 18.886 5.85 15.714C5.85 14.57 6.656 14.024 7.722 14.05C8.918 14.076 9.75 14.778 9.828 15.948H14.638C14.456 12.464 11.778 10.488 7.8 10.488C3.978 10.488 1.144 12.412 1.144 15.87C1.092 22.344 10.218 20.524 10.218 23.904C10.218 24.97 9.386 25.62 8.086 25.62C6.838 25.62 5.954 24.944 5.824 23.54H1.092C1.222 27.232 4.29 29.182 8.216 29.182C12.48 29.182 14.872 26.634 14.872 23.566ZM18.3101 23.956C18.3101 27.726 20.4161 29 23.4321 29H25.6941V25.23H24.1081C23.1201 25.23 22.7561 24.866 22.7561 24.008V18.184H25.6681V14.492H22.7561V10.956H18.3101V14.492H16.5421V18.184H18.3101V23.956ZM27.2866 21.72C27.2866 26.296 30.1206 29.208 33.6566 29.208C35.8146 29.208 37.3486 28.22 38.1546 26.946V29H42.6006V14.492H38.1546V16.546C37.3746 15.272 35.8406 14.284 33.6826 14.284C30.1206 14.284 27.2866 17.144 27.2866 21.72ZM38.1546 21.746C38.1546 24.06 36.6726 25.334 34.9826 25.334C33.3186 25.334 31.8106 24.034 31.8106 21.72C31.8106 19.406 33.3186 18.158 34.9826 18.158C36.6726 18.158 38.1546 19.432 38.1546 21.746ZM50.2631 22.266C50.2631 19.77 51.4851 19.042 53.5911 19.042H54.8131V14.336C52.8631 14.336 51.2771 15.376 50.2631 16.91V14.492H45.8171V29H50.2631V22.266ZM57.6402 23.956C57.6402 27.726 59.7462 29 62.7622 29H65.0242V25.23H63.4382C62.4502 25.23 62.0862 24.866 62.0862 24.008V18.184H64.9982V14.492H62.0862V10.956H57.6402V14.492H55.8722V18.184H57.6402V23.956ZM72.2067 26.816C72.2067 25.438 71.1407 24.372 69.5807 24.372C67.9947 24.372 66.9287 25.438 66.9287 26.816C66.9287 28.142 67.9947 29.208 69.5807 29.208C71.1407 29.208 72.2067 28.142 72.2067 26.816Z" fill="#181C32"/>
</svg> -->

<svg width="81" height="45" viewBox="0 0 74 39" fill="none" xmlns="http://www.w3.org/2000/svg">
<path d="M26.8967 0.156702C26.852 0.275976 26.3451 2.07998 25.7487 4.16727C25.1673 6.25455 24.6604 8.08838 24.6156 8.22256C24.5709 8.38656 24.2727 8.53565 23.7658 8.64002C21.6934 9.07238 18.7116 10.3248 16.9821 11.5026C12.8374 14.3204 9.94501 18.4353 8.75227 23.2361C8.57336 23.9368 8.42427 24.5332 8.39445 24.563C8.37954 24.5779 6.50099 25.1296 4.21989 25.7856C1.93878 26.4416 0.0453208 27.0081 0.000593309 27.0528C-0.0441342 27.0976 2.4457 27.1274 5.5468 27.1274C9.91519 27.1274 11.1676 27.0827 11.2123 26.9336C11.2421 26.8441 11.3465 26.1732 11.4359 25.4576C12.2708 19.151 17.2654 13.5302 23.5571 11.8455C24.3174 11.6368 25.3909 11.428 25.9425 11.3833L26.9564 11.2789L26.9862 5.67309C27.016 2.5869 27.016 0.0374298 27.0011 0.00761032C26.9713 -0.0222073 26.9265 0.0374298 26.8967 0.156702Z" fill="#F37C35"/>
<path d="M28.8945 5.62854V11.3238H29.4014C30.9669 11.3238 33.6655 12.114 35.708 13.1726C36.4386 13.5453 37.0797 13.8584 37.1542 13.8584C37.2138 13.8584 37.7953 13.4409 38.4513 12.934L39.644 12.0097L39.3011 11.7413C37.9146 10.6827 35.0371 9.38565 32.9647 8.84892C32.1745 8.6551 31.4589 8.43146 31.4142 8.37183C31.3545 8.31219 30.788 6.41873 30.1618 4.16744C29.5207 1.91616 28.984 0.0376043 28.9542 0.0077858C28.9243 -0.0220327 28.8945 2.49762 28.8945 5.62854Z" fill="#F37C35"/>
<path d="M8.70753 8.80414C8.79698 8.9085 9.73626 10.146 10.7799 11.5474C11.8385 12.934 12.7181 14.1118 12.7479 14.1416C12.8225 14.246 14.1345 12.9191 14.0599 12.8147C14.0152 12.7551 12.7628 11.7711 11.2719 10.638C9.76608 9.50487 8.61807 8.68486 8.70753 8.80414Z" fill="#F9B643"/>
<path d="M42.7452 12.3375C39.9721 14.4993 32.92 20.0157 28.6411 23.3852C27.2247 24.4885 26.0618 25.4427 26.0618 25.4874C26.0618 25.5321 26.2556 25.7707 26.4942 25.9943C26.9117 26.3968 26.9564 26.3968 27.2695 26.1732C28.0895 25.6067 29.3568 26.0987 29.6549 27.1274C29.8189 27.6492 29.804 27.8132 29.5804 28.2754L29.3269 28.8121L29.7742 29.2743C30.0277 29.5129 30.2513 29.6918 30.2811 29.647C30.3109 29.6172 31.3099 28.35 32.5026 26.8292C35.6335 22.8187 37.0946 20.9401 40.3746 16.7655C44.4896 11.5175 45.4587 10.28 45.4139 10.28C45.3841 10.28 44.1914 11.2044 42.7452 12.3375Z" fill="#536474"/>
<path d="M26.4345 14.1564C20.5156 14.7975 15.6552 19.1808 14.3283 25.0849C13.9407 26.8292 14.0003 29.7067 14.4774 31.466C14.7905 32.6587 15.6552 34.7311 15.8341 34.7311C15.9385 34.7311 17.7127 32.3754 17.8767 31.9878C18.0258 31.6747 18.0109 31.3318 17.7872 30.1689C17.2952 27.5747 17.7127 24.9656 18.9501 22.8187C19.5763 21.7005 21.276 19.9561 22.424 19.2255C24.7945 17.7346 27.2545 17.2874 30.1022 17.8241C30.8029 17.9583 31.5484 18.0328 31.7422 17.9881C31.936 17.9285 32.6964 17.4215 33.412 16.855L34.7389 15.8114L34.0084 15.4535C32.8455 14.8572 30.9967 14.3353 29.4462 14.1713C28.656 14.0819 27.8956 14.0223 27.7465 14.0223C27.5975 14.0372 27.016 14.0968 26.4345 14.1564Z" fill="#F9B643"/>
<path d="M42.8495 17.1531C42.3724 17.7644 41.955 18.331 41.9102 18.4204C41.8804 18.5248 42.0593 18.9273 42.2979 19.3299C43.3862 21.1041 44.251 23.5492 44.5641 25.7408L44.7579 27.1274H50.4234C53.5245 27.1274 56.0441 27.0976 55.9994 27.0528C55.9547 27.0081 54.1208 26.4714 51.9143 25.8452C49.7077 25.219 47.8143 24.6525 47.695 24.5928C47.5906 24.5332 47.3372 23.8772 47.1583 23.1466C46.5619 20.8357 45.1753 17.7942 44.1019 16.5121L43.7142 16.0499L42.8495 17.1531Z" fill="#F37C35"/>
<path d="M25.7636 19.7622C22.7967 20.5375 20.2622 23.1615 19.6509 26.0837C19.4571 26.9932 19.5018 29.647 19.7105 29.7066C19.7851 29.7216 20.0982 29.3637 20.4112 28.9165C20.8585 28.2754 21.0225 27.8728 21.1418 27.0528C21.44 25.0997 22.6476 23.2212 24.2578 22.1924C25.0033 21.7153 26.3898 21.2382 27.4335 21.0891C28.2684 20.9848 29.9829 19.7771 29.5506 19.6131C29.1182 19.4491 26.5985 19.5386 25.7636 19.7622Z" fill="#F37C35"/>
<path d="M38.7197 22.431C38.1084 23.2212 37.6164 23.907 37.6164 23.9667C37.6313 24.0263 37.7804 24.5481 37.9593 25.1445C38.1979 25.9049 38.4215 26.3223 38.7495 26.5907C39.1669 26.9485 39.316 26.9783 40.5535 26.9783H41.8953L41.791 26.1881C41.5375 24.3841 40.3597 21.0147 39.9571 21.0147C39.8826 21.0147 39.3309 21.6558 38.7197 22.431Z" fill="#F9B643"/>
<path d="M24.392 27.3808C23.6913 28.2605 20.456 32.4052 17.176 36.5947C13.896 40.7693 11.0185 44.4667 10.7799 44.7798C10.3178 45.3911 10.9439 44.914 23.9447 34.731L29.9233 30.0347L29.4611 29.5576C29.0437 29.1252 28.9542 29.0954 28.2833 29.1699C27.5975 29.2445 27.5378 29.2296 27.016 28.7077C26.5091 28.2008 26.4793 28.1114 26.5389 27.4256C26.6135 26.7546 26.5687 26.6503 26.1364 26.2328L25.6444 25.7557L24.392 27.3808Z" fill="#0F4372"/>
<path d="M0.045342 29.006C0.134797 29.0358 2.04317 29.6024 4.29445 30.2435L8.39447 31.4064L8.51375 31.9133C8.9312 33.5831 9.63193 35.581 10.2134 36.7439C10.9887 38.2944 11.8832 39.681 12.0323 39.5766C12.1069 39.5468 12.5541 38.9952 13.0461 38.3541L13.9407 37.1911L13.4934 36.4457C12.4349 34.6864 11.5701 32.1071 11.3465 30.0198L11.2272 28.9911L5.56173 28.9613C2.44572 28.9464 -0.0292039 28.9613 0.045342 29.006Z" fill="#F37C35"/>
<path d="M22.3494 38.7416C21.5294 39.3678 20.8585 39.9195 20.8585 39.9642C20.8436 40.1282 23.1545 41.1271 24.228 41.4253C24.8244 41.5893 25.6742 41.7682 26.1215 41.8129L26.9564 41.9173V40.5606C26.9564 39.2933 26.9266 39.174 26.5538 38.7566C26.2706 38.4584 25.7786 38.2049 24.9884 37.9515L23.8404 37.5936L22.3494 38.7416Z" fill="#F9B643"/>
<path d="M17.0865 42.8268L15.9385 43.7363L16.6392 44.2432C18.3985 45.4956 20.8436 46.6137 23.0651 47.1803C23.8254 47.3741 24.4814 47.5679 24.5112 47.5977C24.556 47.6276 25.0927 49.4614 25.7189 51.6679C26.3451 53.8745 26.8967 55.7232 26.9414 55.7829C26.9862 55.8425 27.0309 53.3825 27.0309 50.3261V44.7501L26.1065 44.6606C23.9596 44.437 20.5305 43.2443 19.0694 42.2006C18.8309 42.0217 18.5476 41.8875 18.4283 41.9024C18.3239 41.9024 17.7127 42.3199 17.0865 42.8268Z" fill="#F37C35"/>
</svg>